<svg width="68" height="12" viewBox="0 0 68 12" fill="none" xmlns="http://www.w3.org/2000/svg">
<g id="Container">
<g id="Battery">
<path id="Rectangle" fill-rule="evenodd" clip-rule="evenodd" d="M46.5934 0.160156H61.4149C62.6631 0.160156 63.1157 0.290116 63.572 0.534152C64.0283 0.778188 64.3864 1.1363 64.6305 1.59261C64.8745 2.04892 65.0045 2.50153 65.0045 3.74969V8.07092C65.0045 9.31908 64.8745 9.7717 64.6305 10.228C64.3864 10.6843 64.0283 11.0424 63.572 11.2865C63.1157 11.5305 62.6631 11.6605 61.4149 11.6605H46.5934C45.3453 11.6605 44.8927 11.5305 44.4364 11.2865C43.9801 11.0424 43.6219 10.6843 43.3779 10.228C43.1339 9.7717 43.0039 9.31908 43.0039 8.07092V3.74969C43.0039 2.50153 43.1339 2.04892 43.3779 1.59261C43.6219 1.1363 43.9801 0.778188 44.4364 0.534152C44.8927 0.290116 45.3453 0.160156 46.5934 0.160156ZM46.5933 1.16028C45.6063 1.16028 45.2617 1.22682 44.9078 1.41609C44.6258 1.56693 44.4104 1.7823 44.2596 2.06434C44.0703 2.41824 44.0038 2.76281 44.0038 3.74983V8.07114C44.0038 9.05816 44.0703 9.40273 44.2596 9.75663C44.4104 10.0387 44.6258 10.254 44.9078 10.4049C45.2617 10.5941 45.6063 10.6607 46.5933 10.6607H61.4151C62.4021 10.6607 62.7467 10.5941 63.1006 10.4049C63.3826 10.254 63.598 10.0387 63.7488 9.75663C63.9381 9.40273 64.0046 9.05816 64.0046 8.07114V3.74983C64.0046 2.76281 63.9381 2.41824 63.7488 2.06434C63.598 1.7823 63.3826 1.56693 63.1006 1.41609C62.7467 1.22682 62.4021 1.16028 61.4151 1.16028H46.5933ZM67.5041 5.85033C67.5041 7.08697 66.004 7.85045 66.004 7.85045V3.85021C66.004 3.85021 67.5041 4.61368 67.5041 5.85033Z" fill="white" fill-opacity="0.36"/>
<rect id="Rectangle_2" x="45.0037" y="2.07715" width="18.0008" height="7.66699" rx="1.60002" fill="white"/>
</g>
<path id="Combined Shape" fill-rule="evenodd" clip-rule="evenodd" d="M14.6266 1.56543C14.6035 1.68139 14.6035 1.82084 14.6035 2.09972V9.8003C14.6035 10.0792 14.6035 10.2186 14.6266 10.3346C14.7213 10.8106 15.0934 11.1826 15.5693 11.2773C15.6853 11.3004 15.8247 11.3004 16.1036 11.3004C16.3825 11.3004 16.522 11.3004 16.6379 11.2773C17.1139 11.1826 17.486 10.8106 17.5807 10.3346C17.6037 10.2186 17.6037 10.0792 17.6037 9.8003V2.09972C17.6037 1.82083 17.6037 1.68139 17.5807 1.56543C17.486 1.08946 17.1139 0.717391 16.6379 0.622682C16.522 0.599609 16.3825 0.599609 16.1036 0.599609C15.8247 0.599609 15.6853 0.599609 15.5693 0.622682C15.0934 0.717391 14.7213 1.08946 14.6266 1.56543ZM9.90356 4.49965C9.90356 4.22088 9.90356 4.08149 9.92661 3.96558C10.0213 3.48953 10.3934 3.1174 10.8695 3.02271C10.9854 2.99966 11.1248 2.99966 11.4036 2.99966C11.6823 2.99966 11.8217 2.99966 11.9376 3.02271C12.4137 3.1174 12.7858 3.48953 12.8805 3.96558C12.9035 4.08149 12.9035 4.22088 12.9035 4.49965V9.79962C12.9035 10.0784 12.9035 10.2178 12.8805 10.3337C12.7858 10.8097 12.4137 11.1819 11.9376 11.2766C11.8217 11.2996 11.6823 11.2996 11.4036 11.2996C11.1248 11.2996 10.9854 11.2996 10.8695 11.2766C10.3934 11.1819 10.0213 10.8097 9.92661 10.3337C9.90356 10.2178 9.90356 10.0784 9.90356 9.79962V4.49965ZM5.32679 6.26551C5.30371 6.38148 5.30371 6.52093 5.30371 6.79984V9.80012C5.30371 10.079 5.30371 10.2185 5.32679 10.3345C5.4215 10.8104 5.79356 11.1825 6.26952 11.2772C6.38548 11.3003 6.52494 11.3003 6.80385 11.3003C7.08276 11.3003 7.22221 11.3003 7.33818 11.2772C7.81414 11.1825 8.18619 10.8104 8.28091 10.3345C8.30398 10.2185 8.30398 10.079 8.30398 9.80012V6.79984C8.30398 6.52093 8.30398 6.38148 8.28091 6.26551C8.18619 5.78956 7.81414 5.4175 7.33818 5.32278C7.22221 5.29971 7.08276 5.29971 6.80385 5.29971C6.52494 5.29971 6.38548 5.29971 6.26952 5.32278C5.79356 5.4175 5.4215 5.78956 5.32679 6.26551ZM0.526487 8.26567C0.503418 8.38162 0.503418 8.52105 0.503418 8.79991V9.79997C0.503418 10.0788 0.503418 10.2183 0.526487 10.3342C0.621191 10.8102 0.993275 11.1823 1.46926 11.277C1.58521 11.3001 1.72464 11.3001 2.00351 11.3001C2.28237 11.3001 2.4218 11.3001 2.53775 11.277C3.01374 11.1823 3.38582 10.8102 3.48053 10.3342C3.50359 10.2183 3.50359 10.0788 3.50359 9.79997V8.79991C3.50359 8.52105 3.50359 8.38162 3.48053 8.26567C3.38582 7.78968 3.01374 7.4176 2.53775 7.32289C2.4218 7.29982 2.28237 7.29982 2.00351 7.29982C1.72464 7.29982 1.58521 7.29982 1.46926 7.32289C0.993275 7.4176 0.621191 7.78968 0.526487 8.26567Z" fill="white"/>
<path id="Wi-Fi" fill-rule="evenodd" clip-rule="evenodd" d="M30.3045 2.69685C32.539 2.69695 34.6881 3.55554 36.3075 5.09516C36.4295 5.21402 36.6244 5.21252 36.7445 5.0918L37.9102 3.91533C37.971 3.8541 38.0049 3.77116 38.0044 3.68486C38.0039 3.59856 37.969 3.51602 37.9075 3.4555C33.657 -0.61798 26.9513 -0.61798 22.7008 3.4555C22.6393 3.51597 22.6043 3.59849 22.6038 3.68479C22.6032 3.77109 22.637 3.85406 22.6978 3.91533L23.8639 5.0918C23.9839 5.21271 24.179 5.21421 24.3008 5.09516C25.9205 3.55544 28.0698 2.69684 30.3045 2.69685ZM30.3043 6.5244C31.532 6.52432 32.7159 6.98065 33.6259 7.80471C33.749 7.92166 33.9429 7.91913 34.0629 7.799L35.2272 6.62255C35.2885 6.56084 35.3225 6.47713 35.3217 6.39014C35.3208 6.30315 35.2851 6.22015 35.2225 6.1597C32.4513 3.58189 28.1596 3.58189 25.3884 6.1597C25.3258 6.22015 25.2901 6.30319 25.2893 6.39021C25.2885 6.47723 25.3226 6.56093 25.384 6.62255L26.5481 7.799C26.668 7.91913 26.8619 7.92166 26.985 7.80471C27.8945 6.9812 29.0774 6.52491 30.3043 6.5244ZM32.5425 9.33205C32.6048 9.27092 32.6391 9.18681 32.6373 9.09957C32.6355 9.01233 32.5978 8.92968 32.5331 8.87115C31.2466 7.78308 29.3625 7.78308 28.0761 8.87115C28.0113 8.92964 27.9736 9.01225 27.9717 9.0995C27.9699 9.18674 28.0041 9.27088 28.0664 9.33205L30.081 11.3649C30.1401 11.4246 30.2206 11.4582 30.3046 11.4582C30.3886 11.4582 30.4691 11.4246 30.5281 11.3649L32.5425 9.33205Z" fill="white"/>
</g>
</svg>
